<svg version="1.0" xmlns="http://www.w3.org/2000/svg"
 viewBox="0 0 440.000000 440.000000"
 preserveAspectRatio="xMidYMid meet">
<g transform="translate(0.000000,440.000000) scale(0.100000,-0.100000)"
fill="#6b4f3a" stroke="none">
<path d="M2178 4155 c-2 -1 -50 -6 -108 -9 -58 -4 -114 -9 -125 -11 -11 -3
-38 -7 -59 -10 -83 -12 -235 -49 -321 -79 -561 -194 -1002 -624 -1203 -1171
-22 -60 -47 -141 -56 -180 -9 -38 -21 -86 -26 -105 -5 -19 -12 -58 -15 -85 -3
-28 -10 -77 -14 -110 -13 -90 -10 -317 5 -434 59 -447 258 -848 576 -1157 172
-167 303 -259 520 -363 177 -84 302 -125 498 -162 131 -25 441 -34 570 -18
485 62 940 306 1254 673 28 31 57 67 65 79 8 12 23 30 32 40 9 10 25 33 35 52
10 19 22 35 26 35 5 0 8 5 8 10 0 6 11 28 24 49 109 173 208 437 251 676 25
137 31 424 11 571 -35 268 -135 550 -276 779 -105 171 -291 382 -450 510 -239
193 -559 336 -873 390 -15 3 -39 7 -54 10 -16 3 -71 8 -123 11 -52 2 -112 6
-132 8 -20 2 -38 3 -40 1z m-449 -925 c30 -6 93 -28 139 -51 221 -107 367
-356 348 -594 -4 -44 -7 -87 -8 -95 -1 -27 -70 -202 -97 -249 -15 -25 -35 -63
-46 -83 -11 -21 -23 -38 -27 -38 -5 0 -8 -5 -8 -11 0 -14 -111 -151 -175 -215
-89 -90 -235 -192 -360 -254 -102 -49 -258 -110 -285 -110 -4 0 22 30 59 68
114 114 201 246 201 305 0 58 -40 107 -107 131 -165 58 -325 236 -379 421 -23
80 -24 229 -1 315 70 263 258 423 552 473 30 5 132 -2 194 -13z m1366 -496
c179 -44 328 -170 409 -345 46 -100 60 -177 54 -302 -4 -81 -12 -119 -36 -185
-69 -186 -175 -348 -326 -497 -109 -108 -217 -186 -354 -255 -95 -48 -271
-115 -279 -106 -2 2 16 23 42 47 25 23 64 68 88 98 23 31 49 64 58 74 36 40
72 127 66 161 -9 58 -34 83 -125 127 -148 72 -242 160 -302 284 -177 363 -10
758 375 890 97 33 218 37 330 9z"/>
</g>
</svg>